HIERARCHY
ROOT SpineBase
{
  OFFSET 0.000000 0.000000 0.000000
  CHANNELS 6 Xposition Yposition Zposition Zrotation Xrotation Yrotation
  JOINT SpineMid
  {
    OFFSET -0.000000 30.583526 0.000000
    CHANNELS 3 Zrotation Xrotation Yrotation
    JOINT SpineShoulder
    {
      OFFSET 0.123302 22.798013 -0.745259
      CHANNELS 3 Zrotation Xrotation Yrotation
      JOINT Neck
      {
        OFFSET 0.079905 7.566565 -0.575483
        CHANNELS 3 Zrotation Xrotation Yrotation
        JOINT Head
        {
          OFFSET -5.270453 13.042248 0.920466
          CHANNELS 3 Zrotation Xrotation Yrotation
          End Site
          {
            OFFSET 0 0 0
          }
        }
      }
      JOINT ShoulderLeft
      {
        OFFSET -13.727934 -5.319098 6.302814
        CHANNELS 3 Zrotation Xrotation Yrotation
        JOINT ElbowLeft
        {
          OFFSET -1.405575 -27.607123 1.215933
          CHANNELS 3 Zrotation Xrotation Yrotation
          JOINT WristLeft
          {
            OFFSET -0.579853 -20.057685 -6.348413
            CHANNELS 3 Zrotation Xrotation Yrotation
            JOINT HandLeft
            {
              OFFSET 0.733331 -3.701442 -1.416035
              CHANNELS 3 Zrotation Xrotation Yrotation
              JOINT HandTipLeft
              {
                OFFSET 0.554054 -4.185369 -1.107739
                CHANNELS 3 Zrotation Xrotation Yrotation
                End Site
                {
                  OFFSET 0 0 0
                }
              }
              JOINT ThumbLeft
              {
                OFFSET 2.780435 0.674566 -3.062020
                CHANNELS 3 Zrotation Xrotation Yrotation
                End Site
                {
                  OFFSET 0 0 0
                }
              }
            }
          }
        }
      }
      JOINT ShoulderRight
      {
        OFFSET 11.413173 -2.506700 -9.648751
        CHANNELS 3 Zrotation Xrotation Yrotation
        JOINT ElbowRight
        {
          OFFSET 6.357432 -21.596431 -2.889327
          CHANNELS 3 Zrotation Xrotation Yrotation
          JOINT WristRight
          {
            OFFSET -0.644950 -22.414418 -4.451872
            CHANNELS 3 Zrotation Xrotation Yrotation
            JOINT HandRight
            {
              OFFSET -1.728636 -4.538660 -0.585338
              CHANNELS 3 Zrotation Xrotation Yrotation
              JOINT HandTipRight
              {
                OFFSET -0.167793 -6.068654 0.533211
                CHANNELS 3 Zrotation Xrotation Yrotation
                End Site
                {
                  OFFSET 0 0 0
                }
              }
              JOINT ThumbRight
              {
                OFFSET -2.561310 1.102161 -1.483522
                CHANNELS 3 Zrotation Xrotation Yrotation
                End Site
                {
                  OFFSET 0 0 0
                }
              }
            }
          }
        }
      }
    }
  }
  JOINT HipLeft
  {
    OFFSET -5.794582 -0.131426 -0.309309
    CHANNELS 3 Zrotation Xrotation Yrotation
    JOINT KneeLeft
    {
      OFFSET 2.004953 -28.027559 3.033849
      CHANNELS 3 Zrotation Xrotation Yrotation
      JOINT AnkleLeft
      {
        OFFSET 0.860823 -30.129460 6.127939
        CHANNELS 3 Zrotation Xrotation Yrotation
        JOINT FootLeft
        {
          OFFSET -2.819803 -6.729455 -4.277671
          CHANNELS 3 Zrotation Xrotation Yrotation
          End Site
          {
            OFFSET 0 0 0
          }
        }
      }
    }
  }
  JOINT HipRight
  {
    OFFSET 6.311585 2.013863 -6.938057
    CHANNELS 3 Zrotation Xrotation Yrotation
    JOINT KneeRight
    {
      OFFSET 9.095297 -25.090625 -1.350338
      CHANNELS 3 Zrotation Xrotation Yrotation
      JOINT AnkleRight
      {
        OFFSET 8.579422 -31.573294 5.707687
        CHANNELS 3 Zrotation Xrotation Yrotation
        JOINT FootRight
        {
          OFFSET -0.130643 -6.283208 -6.824963
          CHANNELS 3 Zrotation Xrotation Yrotation
          End Site
          {
            OFFSET 0 0 0
          }
        }
      }
    }
  }
}
MOTION
Frames: 12
Frame Time: 0.033333
-32.024632 66.999551 393.088453 -3.018999 -0.978670 42.141832 0.877510 -0.506977 -42.228726 0.377982 0.229965 -0.056842 -4.586456 5.470759 2.930722 0.000000 0.000000 0.000000 3.700773 1.561628 0.113001 -6.047494 0.282506 1.139375 9.930163 -10.116125 -4.694454 -4.344042 11.506357 3.927484 0.000000 0.000000 0.000000 0.000000 0.000000 0.000000 6.139335 -1.240518 -0.977563 -5.179203 13.477777 1.015913 5.066439 -52.223507 19.472159 6.870836 45.634781 -18.411212 0.000000 0.000000 0.000000 0.000000 0.000000 0.000000 8.223643 -0.652141 -41.371520 -5.407751 -1.952936 -1.215170 1.182639 7.588129 -3.052452 0.000000 0.000000 0.000000 3.297920 -0.243968 -41.725070 4.048431 -2.078711 0.083728 -1.393402 -1.745212 -2.809780 0.000000 0.000000 0.000000
-32.499743 67.001378 393.400425 -3.600083 -1.284783 41.057958 0.800242 -0.626178 -41.181461 0.413337 0.160157 -0.077304 -5.016056 7.022736 3.634260 0.000000 0.000000 0.000000 4.186046 2.102617 0.114274 -6.013472 0.133029 1.140900 11.763530 -14.404521 -5.924181 -7.469055 16.987277 6.333322 0.000000 0.000000 0.000000 0.000000 0.000000 0.000000 6.652175 0.121201 -0.788483 -5.354642 12.800076 0.803495 4.156772 -51.369966 18.354631 10.525473 44.861636 -20.172701 0.000000 0.000000 0.000000 0.000000 0.000000 0.000000 8.960019 -0.973228 -40.254350 -5.577353 -1.537821 -1.192580 1.557942 5.898399 -2.828136 0.000000 0.000000 0.000000 5.824258 0.238885 -40.082836 3.398359 -3.567265 -0.225083 -1.717131 -2.383332 -3.063034 0.000000 0.000000 0.000000
-32.844397 66.946456 393.818563 -3.955740 -1.391657 38.965354 0.854181 -0.525919 -39.107043 0.472594 0.199677 -0.088782 -6.488693 7.259159 4.060696 0.000000 0.000000 0.000000 4.477683 2.070074 0.137222 -5.880418 0.270819 1.109716 15.614266 -13.421691 -6.668893 -11.255494 18.308145 7.948328 0.000000 0.000000 0.000000 0.000000 0.000000 0.000000 6.688972 0.485297 -0.633323 -5.086940 12.458440 0.650799 4.496458 -51.286378 18.451909 14.233121 47.504550 -22.700282 0.000000 0.000000 0.000000 0.000000 0.000000 0.000000 9.202117 -1.207043 -38.168395 -5.662957 -0.828937 -1.129839 2.291890 2.477669 -2.119013 0.000000 0.000000 0.000000 8.110834 1.251880 -37.356737 2.632484 -5.231892 -0.654289 -1.734044 -4.298549 -3.439179 0.000000 0.000000 0.000000
-33.108633 66.849641 394.365248 -4.197894 -1.475692 35.551085 1.075483 -0.174217 -35.698285 0.542668 0.304639 -0.093995 -8.464365 6.200775 4.016192 0.000000 0.000000 0.000000 4.659540 1.687043 0.176164 -5.591979 0.480574 1.024074 19.126270 -8.851343 -7.020637 -15.025933 14.017768 8.356419 0.000000 0.000000 0.000000 0.000000 0.000000 0.000000 6.394436 -0.000403 -0.542639 -4.576625 12.647403 0.615435 3.737811 -51.969035 18.387200 15.822301 48.981493 -23.892925 0.000000 0.000000 0.000000 0.000000 0.000000 0.000000 9.367861 -1.179059 -34.790369 -5.757852 -0.033481 -1.063967 -0.080737 5.968786 -2.163029 0.000000 0.000000 0.000000 10.373316 3.383648 -33.168863 1.901678 -7.451240 -1.310851 -1.685669 -6.557146 -3.798049 0.000000 0.000000 0.000000
-33.053591 66.993340 394.604926 -4.094291 -1.053557 31.032937 1.080475 0.143423 -31.159443 0.579925 0.376661 -0.091649 -10.386139 4.480168 3.613525 0.000000 0.000000 0.000000 4.634932 0.988000 0.222657 -5.191173 0.834861 0.902273 21.717855 0.690714 -7.030597 -16.284917 4.110715 5.989888 0.000000 0.000000 0.000000 0.000000 0.000000 0.000000 5.264682 -1.321767 -0.505904 -3.154585 13.246472 0.570517 3.222085 -52.686842 18.688594 17.036828 50.336701 -24.997852 0.000000 0.000000 0.000000 0.000000 0.000000 0.000000 8.338075 -1.434356 -30.374681 -5.605573 1.216647 -0.915087 0.741317 6.247578 -2.746171 0.000000 0.000000 0.000000 10.907780 5.582097 -28.058808 1.458391 -9.375663 -1.973329 -1.037539 -7.566094 -4.337395 0.000000 0.000000 0.000000
-32.789847 67.041277 394.685061 -3.689645 -0.565984 28.023123 0.860378 0.373546 -28.125848 0.563507 0.456177 -0.086563 -12.206930 2.284698 2.800329 0.000000 0.000000 0.000000 4.504663 0.361170 0.255209 -4.745530 1.237648 0.764324 22.924878 8.962821 -6.979500 -17.069158 -6.723965 3.358868 0.000000 0.000000 0.000000 0.000000 0.000000 0.000000 4.717931 -3.017534 -0.714508 -2.904812 14.643429 0.888838 -0.954170 -55.278389 17.482178 26.277245 51.272831 -31.149173 0.000000 0.000000 0.000000 0.000000 0.000000 0.000000 7.667019 -1.455136 -27.374011 -6.121532 2.123976 -0.958454 0.906745 4.978576 -2.158552 0.000000 0.000000 0.000000 10.602531 7.627683 -24.505477 1.070098 -11.518957 -2.790830 -0.092399 -7.286257 -4.692588 0.000000 0.000000 0.000000
-32.620169 67.083852 395.064113 -3.416578 -0.181543 25.773071 0.822087 0.592739 -25.856701 0.528115 0.492586 -0.082362 -13.283687 1.007633 2.338141 0.000000 0.000000 0.000000 4.708851 -0.074461 0.291351 -5.071470 -0.227640 0.748517 19.881703 19.311240 -5.565741 -17.136786 -17.839132 -0.734067 0.000000 0.000000 0.000000 0.000000 0.000000 0.000000 5.218245 -4.382853 -0.954663 -3.781331 15.611903 1.301932 -7.124097 -55.636145 14.096832 33.349747 50.305934 -34.560753 0.000000 0.000000 0.000000 0.000000 0.000000 0.000000 6.908723 -1.147435 -25.175838 -5.657959 2.660208 -0.879143 0.382602 5.001266 -2.083210 0.000000 0.000000 0.000000 10.347164 8.879118 -21.902530 0.362324 -12.753997 -3.432260 2.381223 -8.799876 -6.643242 0.000000 0.000000 0.000000
-32.412178 67.047451 395.457538 -3.090033 0.160586 25.256267 0.927337 0.759191 -25.319104 0.564897 0.563090 -0.065123 -14.672168 -0.137422 1.899563 0.000000 0.000000 0.000000 4.132763 -1.429019 0.338353 -4.135950 0.920732 0.527941 18.365513 23.538481 -4.578396 -17.556700 -24.675067 -3.062418 0.000000 0.000000 0.000000 0.000000 0.000000 0.000000 3.825555 -6.999357 -1.432623 -2.719909 17.777134 1.724655 -9.383535 -54.274826 12.472035 33.768361 48.654384 -33.567362 0.000000 0.000000 0.000000 0.000000 0.000000 0.000000 5.322414 -0.886438 -24.819796 -3.921719 3.276400 -0.584692 1.343679 5.693616 -3.586841 0.000000 0.000000 0.000000 10.408554 9.100374 -21.255803 -0.934602 -13.105377 -3.938957 1.878159 -5.726837 -5.065522 0.000000 0.000000 0.000000
-32.337031 67.182592 396.340997 -2.675523 0.765142 26.340358 0.671653 0.303484 -26.387269 0.573753 0.773971 -0.049496 -16.708335 -0.663490 1.741052 0.000000 0.000000 0.000000 3.746853 -1.993339 0.339779 -3.284752 4.701530 0.190269 13.992336 14.979716 -2.157202 -13.581187 -22.363822 -1.878137 0.000000 0.000000 0.000000 0.000000 0.000000 0.000000 2.674483 -6.529930 -1.189484 -1.274824 16.442437 1.139731 -4.316968 -51.652851 14.626971 24.039311 48.661042 -27.586946 0.000000 0.000000 0.000000 0.000000 0.000000 0.000000 3.607897 0.107086 -26.033048 -0.681096 2.421845 -0.139283 2.963838 2.396444 -4.719514 0.000000 0.000000 0.000000 8.231505 7.183415 -22.751642 0.510482 -9.651177 -2.735340 -0.127421 -3.442730 -3.527545 0.000000 0.000000 0.000000
-32.441083 67.449269 397.440927 -2.333397 1.515700 28.786547 0.698636 0.637833 -28.816657 0.418817 0.259180 -0.058918 -17.705312 -0.659643 1.953714 0.000000 0.000000 0.000000 2.959857 -2.088613 0.274242 -2.227660 7.147996 0.069014 10.233017 5.445325 -0.752415 -12.134642 -18.047584 -0.835472 0.000000 0.000000 0.000000 0.000000 0.000000 0.000000 1.491562 -8.946749 -1.669803 -0.883114 18.967535 1.744239 -5.495119 -51.881161 13.504803 20.182706 47.002516 -24.541574 0.000000 0.000000 0.000000 0.000000 0.000000 0.000000 1.268773 0.245467 -28.705680 3.515704 0.996075 0.571839 2.257498 5.035083 -6.796337 0.000000 0.000000 0.000000 6.120113 4.838628 -25.726647 1.964740 -5.357507 -1.338099 -3.039650 -3.370159 -1.557957 0.000000 0.000000 0.000000
-32.537473 67.593694 398.744906 -2.008600 3.194709 29.929293 0.642104 0.550274 -29.932553 0.353292 0.024793 -0.056377 -18.207051 -0.664783 2.305633 0.000000 0.000000 0.000000 1.590170 -2.112554 0.119209 -0.439987 9.479533 -0.156253 3.023928 -8.495733 0.280922 -4.388343 -5.128235 0.440516 0.000000 0.000000 0.000000 0.000000 0.000000 0.000000 1.588133 -8.792452 -1.221903 -1.423933 17.646635 1.452400 -9.829094 -50.997285 10.749363 23.687039 45.748003 -25.360750 0.000000 0.000000 0.000000 0.000000 0.000000 0.000000 -2.400495 -1.049262 -30.284788 8.007185 -1.415663 1.328252 -0.340976 12.347940 -8.433497 0.000000 0.000000 0.000000 3.149999 2.548877 -27.280436 4.084827 -0.981462 0.056242 -5.141195 -3.777782 -1.214591 0.000000 0.000000 0.000000
-32.674626 67.715710 399.907900 -1.932494 5.077036 30.327993 0.484151 0.264505 -30.306715 0.164253 -0.365522 -0.080734 -17.136294 1.182924 3.726708 0.000000 0.000000 0.000000 0.084029 -1.608293 -0.092103 1.631129 11.285699 -0.229397 -7.050523 -24.506979 -1.308440 2.271565 13.293374 1.345517 0.000000 0.000000 0.000000 0.000000 0.000000 0.000000 3.306353 -6.796026 -0.292091 -2.107098 13.833231 0.461546 -18.854280 -47.141518 6.212226 27.561537 40.056523 -24.373894 0.000000 0.000000 0.000000 0.000000 0.000000 0.000000 -5.950836 -2.490759 -31.267439 12.138644 -5.074246 2.014454 -3.432199 23.163873 -9.741946 0.000000 0.000000 0.000000 0.313947 0.559485 -28.046607 6.407707 2.835761 1.216688 -7.614289 -4.481543 -0.846572 0.000000 0.000000 0.000000
